HIERARCHY
ROOT Bip01_Pelvis
{
	OFFSET 0.000000 0.916349 0.000000
	CHANNELS 6 Xposition Yposition Zposition Zrotation Yrotation Xrotation 
	JOINT Bip01_Spine
	{
		OFFSET -0.007157 -0.053105 0.130545
		CHANNELS 3 Zrotation Yrotation Xrotation
		JOINT Bip01_Spine1
		{
			OFFSET -0.051320 -0.022868 0.243286
			CHANNELS 3 Zrotation Yrotation Xrotation
			JOINT Bip01_Neck
			{
				OFFSET 0.014365 0.130467 0.260069
				CHANNELS 3 Zrotation Yrotation Xrotation
				JOINT Bip01_Neck1
				{
					OFFSET 0.003849 0.158046 0.062113
					CHANNELS 3 Zrotation Yrotation Xrotation
					JOINT Bip01_Head
					{
						OFFSET -0.006429 0.098206 0.047485
						CHANNELS 3 Zrotation Yrotation Xrotation
						End Site #name: BN_Mouth_01
						{
							OFFSET -0.002295 0.021650 0.085909
						}
					}
				}
				JOINT Bip01_L_Clavicle
				{
					OFFSET -0.124716 0.010400 -0.063351
					CHANNELS 3 Zrotation Yrotation Xrotation
					JOINT Bip01_L_UpperArm
					{
						OFFSET 0.267412 -0.063158 0.002861
						CHANNELS 3 Zrotation Yrotation Xrotation
						JOINT Bip01_L_Forearm
						{
							OFFSET -0.002439 -0.267759 0.018123
							CHANNELS 3 Zrotation Yrotation Xrotation
							JOINT Bip01_L_Hand
							{
								OFFSET -0.001546 -0.270565 0.084669
								CHANNELS 3 Zrotation Yrotation Xrotation
								End Site #name: Bip01_L_Finger0
								{
									OFFSET 0.007180 -0.226700 0.021191
								}
							}
						}
						End Site #name: BN__UpperArm_L_01
						{
							OFFSET 0.032844 -0.089498 -0.039528
						}
					}
				}
				JOINT Bip01_R_Clavicle
				{
					OFFSET 0.118604 -0.009585 -0.074295
					CHANNELS 3 Zrotation Yrotation Xrotation
					JOINT Bip01_R_UpperArm
					{
						OFFSET -0.269177 -0.050241 0.022910
						CHANNELS 3 Zrotation Yrotation Xrotation
						JOINT Bip01_R_Forearm
						{
							OFFSET 0.023429 -0.258302 -0.068997
							CHANNELS 3 Zrotation Yrotation Xrotation
							JOINT Bip01_R_Hand
							{
								OFFSET 0.025815 -0.282119 0.010870
								CHANNELS 3 Zrotation Yrotation Xrotation
								End Site #name: Bip01_R_Finger0
								{
									OFFSET -0.011765 -0.226637 0.019751
								}
							}
						}
						End Site #name: BN__UpperArm_R_01
						{
							OFFSET -0.027772 -0.074692 -0.065580
						}
					}
				}
			}
		}
		JOINT Bip01_L_Thigh
		{
			OFFSET 0.132066 0.044772 -0.128199
			CHANNELS 3 Zrotation Yrotation Xrotation
			JOINT Bip01_L_Calf
			{
				OFFSET 0.007329 -0.274491 -0.029074
				CHANNELS 3 Zrotation Yrotation Xrotation
				JOINT Bip01_L_HorseLink
				{
					OFFSET -0.000102 -0.253851 -0.128518
					CHANNELS 3 Zrotation Yrotation Xrotation
					JOINT Bip01_L_Foot
					{
						OFFSET 0.010975 -0.241240 0.041429
						CHANNELS 3 Zrotation Yrotation Xrotation
						End Site #name: Bip01_L_Toe0
						{
							OFFSET 0.008695 -0.129655 0.095116
						}
					}
				}
			}
		}
		JOINT Bip01_R_Thigh
		{
			OFFSET -0.089102 0.040751 -0.137305
			CHANNELS 3 Zrotation Yrotation Xrotation
			JOINT Bip01_R_Calf
			{
				OFFSET -0.032107 -0.272549 0.030497
				CHANNELS 3 Zrotation Yrotation Xrotation
				JOINT Bip01_R_HorseLink
				{
					OFFSET -0.009390 -0.272615 -0.080933
					CHANNELS 3 Zrotation Yrotation Xrotation
					JOINT Bip01_R_Foot
					{
						OFFSET -0.038085 -0.228295 0.080401
						CHANNELS 3 Zrotation Yrotation Xrotation
						End Site #name: Bip01_R_Toe0
						{
							OFFSET -0.036532 -0.129925 0.087853
						}
					}
				}
			}
		}
	}
	JOINT BN_Tail_01
	{
		OFFSET 0.037349 0.070844 -0.124429
		CHANNELS 3 Zrotation Yrotation Xrotation
		End Site #name: BN_Tail_02
		{
			OFFSET 0.004549 -0.162064 -0.101273
		}
	}
}
MOTION
Frames: 12
Frame Time: 0.041667
0.072104 0.475170 -0.434373 78.693390 24.259429 -27.459028 -86.605553 38.117371 27.464089 28.211408 -32.501196 29.313967 -58.633603 -44.272219 83.116358 -23.759508 -21.469673 71.575262 -5.750902 -77.932505 -94.059548 -35.157555 66.090505 -118.849244 -11.479081 21.387249 89.167678 -4.846202 -3.573576 -121.113262 -105.454697 67.119056 -90.937435 -24.024208 -20.172575 -82.108251 10.990330 41.108528 21.239372 12.319081 -4.688350 -90.961560 -155.555698 -49.833822 -177.430094 15.724552 10.146920 -19.259060 17.793645 -42.686247 105.056014 -32.275353 -16.757430 -58.551720 -29.024251 -4.457854 -30.312677 -58.896312 -10.066082 -37.083513 121.976031 -30.320060 2.160331 -79.136881 -17.986468 -10.950598 29.440149 20.813925 22.679540 -75.855763 35.593085 77.330834 
0.044655 0.509540 -0.264834 82.111813 22.889222 -26.900877 -87.310801 37.981764 22.173304 33.925317 -22.473041 22.452499 -65.045835 -39.569239 80.118114 -31.876541 -18.124663 66.151479 -64.808433 -55.064717 -25.041182 -22.279618 66.714359 -109.124601 -22.147067 7.792538 98.433390 -6.112439 -1.783170 -100.446089 -91.828439 57.875065 -80.082361 -19.194859 -6.003332 -76.327428 12.189150 32.600189 18.969585 12.135170 -4.948128 -88.834912 -113.372541 -31.390098 142.973894 27.555481 9.814742 11.030817 24.806363 -27.787973 63.363006 -30.552593 -12.377737 -46.371960 -30.530664 -5.565838 -27.200856 -55.137174 13.612554 -25.161323 129.319913 -32.471354 1.053495 -81.987798 -19.204296 -12.253160 10.580236 18.671453 -3.065871 -78.892759 36.248248 79.049250 
0.011199 0.551643 -0.064899 86.168092 20.902978 -26.639015 -87.641606 38.125517 15.875641 38.923245 -9.389792 16.015805 -68.794735 -36.522663 73.904418 -34.306824 -18.541312 55.793195 -71.280930 -28.687695 -13.953753 -9.222337 63.341713 -95.809600 -34.273456 -6.902998 102.864032 -6.672693 1.121683 -72.509577 -92.870998 56.438926 -84.396449 -14.197043 5.221657 -68.342885 13.448525 25.403203 23.594429 10.880287 -6.314001 -76.428072 -104.419157 -21.873048 132.702233 35.205094 4.156552 36.086134 20.176451 -13.296254 29.427875 -28.033560 -8.544839 -34.540026 -30.181139 -2.745532 -14.750792 -34.398006 38.669312 -3.103465 117.090468 -28.793258 2.717215 -74.287910 -16.069601 -8.626259 -7.037369 4.642131 -25.216325 -81.957123 37.150076 80.742353 
-0.018141 0.589178 0.110535 89.610743 18.816673 -26.698184 -87.262164 38.421556 10.299986 42.276260 3.353946 11.115995 -68.824994 -36.399726 63.848304 -25.901443 -22.090566 38.836634 -67.080452 -17.604528 -10.273226 -1.351495 56.954979 -82.181475 -47.686159 -15.195762 107.461585 -5.788953 3.978879 -44.217765 -100.973976 57.186289 -92.542869 -11.533034 10.487487 -58.041666 10.690537 23.879066 40.162819 12.052129 -5.059290 -87.914117 -114.505033 -27.867442 131.723430 34.527939 2.005625 42.547311 19.190474 -11.945096 25.825241 -29.511358 -10.583982 -41.033578 -24.817953 4.230831 9.259945 -6.120492 46.510052 24.575397 94.584183 -21.134490 3.293681 -54.775109 -10.537202 1.771424 -19.838234 -10.583766 -36.247099 -84.689138 38.180761 82.441378 
-0.033244 0.609837 0.206541 91.296384 17.259251 -27.005628 -86.045675 38.673048 7.058620 44.056236 12.155199 8.102151 -66.910119 -37.043771 50.808547 -10.542082 -22.936292 15.648159 -56.736748 -19.459020 -10.238578 3.754742 50.450023 -68.011467 -56.141618 -16.543796 112.881806 -4.742986 5.261321 -28.636453 -109.654434 60.517240 -100.191829 -9.477432 13.176347 -45.609176 8.053487 25.220982 43.409971 12.426650 -4.525934 -92.258585 -125.673128 -39.292426 130.609589 26.810620 7.051604 29.157167 24.282772 -22.790759 52.007666 -32.545165 -17.837073 -61.462213 -15.327989 8.873444 34.672907 12.405002 43.481494 43.510248 77.157911 -15.156395 1.483667 -42.332526 -8.957337 8.925147 -25.026644 -18.461942 -39.489282 -86.744422 39.158957 84.190077 
-0.037047 0.616768 0.240365 90.912321 16.252501 -27.342350 -83.935832 38.686475 6.328748 44.922446 16.174361 6.727244 -63.868572 -37.238453 38.600985 3.510719 -18.711670 -4.890737 -43.969000 -26.531954 -17.264962 2.993778 44.216317 -58.076205 -56.578618 -16.589630 122.541775 -5.056370 4.946946 -32.805716 -118.102376 67.127084 -110.554023 -8.100697 13.922650 -34.586755 14.108790 26.211998 44.968946 9.824941 -7.101909 -67.614773 -146.277856 -59.529877 148.660002 17.710982 11.900417 13.314496 24.191444 -32.726224 75.129448 -33.022397 -23.056184 -75.412439 -7.648078 9.483535 49.294160 19.287302 39.582926 51.400351 68.924509 -12.545928 0.000964 -40.198300 -8.842229 10.170617 -25.088051 -19.859159 -39.232257 -88.000473 39.877010 86.156374 
-0.039352 0.621524 0.266373 89.332857 15.363305 -27.731105 -81.218541 38.596700 6.893057 45.503923 17.646604 6.209341 -61.101497 -36.413548 31.445687 9.815957 -14.692273 -15.612128 -35.430242 -29.879581 -24.871308 -4.246018 38.615239 -55.133621 -52.155063 -17.402128 132.397416 -5.483779 4.431932 -39.091767 -120.964761 69.977163 -117.013076 -7.885707 12.898073 -28.656613 20.387372 27.217770 40.361273 5.275505 -8.432681 -35.437977 167.236975 -63.340315 -165.308695 12.203766 14.692245 4.287107 23.109643 -35.831996 83.183679 -32.917566 -24.442652 -79.188485 -6.339535 8.870148 47.088128 23.216250 35.654432 55.924652 61.439660 -10.372100 -1.655704 -38.237727 -8.777777 11.316183 -25.000920 -20.216110 -39.043400 -88.651804 40.284300 88.397682 
-0.040325 0.624407 0.285328 87.248653 14.587890 -28.394207 -78.394382 38.629311 8.164741 45.898510 17.544244 6.213297 -58.900172 -34.905623 28.592813 10.795551 -13.510160 -19.489370 -31.646931 -30.953478 -29.257259 -13.074263 33.335243 -55.544055 -45.855409 -19.393918 140.322896 -5.806565 3.950795 -44.523889 -118.055326 69.965413 -117.792452 -8.249804 10.962891 -26.743061 21.992601 28.537700 43.414729 5.394821 -8.431421 -36.239842 160.860526 -61.798907 -160.482278 8.101633 17.297151 -2.513321 23.061187 -35.937873 83.472668 -32.973233 -23.874128 -77.632498 -8.475289 7.253422 35.451604 25.401486 32.468549 58.376138 55.203205 -8.737955 -3.233811 -36.652021 -8.753551 12.244216 -24.768473 -19.988316 -38.944839 -88.845982 40.398240 90.790061 
-0.040131 0.625719 0.297995 85.367983 13.891135 -29.555433 -75.929388 39.048659 9.569317 46.141479 16.870424 6.420157 -56.623357 -33.134434 26.418099 11.084682 -12.852929 -22.501065 -27.555937 -31.672200 -33.556334 -19.622199 28.750544 -54.884412 -40.516314 -21.601640 145.331923 -5.984322 3.633954 -47.933505 -114.265811 68.405871 -116.655083 -8.842056 8.710425 -25.461200 23.299095 29.952834 45.756113 5.696222 -8.420036 -38.257987 157.163813 -60.825762 -158.148912 5.107716 19.614776 -7.131243 23.811761 -34.028650 78.423811 -33.033498 -21.882180 -72.253530 -11.498601 4.418957 22.008320 26.571018 30.567956 59.637974 50.890805 -7.713552 -4.419783 -35.624120 -8.751481 12.844722 -24.475324 -19.699197 -38.892885 -88.729722 40.246925 93.199115 
-0.038939 0.625765 0.305140 84.379402 13.197107 -31.434837 -74.235683 40.181409 10.537052 46.274784 16.621708 6.529869 -54.321701 -31.171296 24.870533 10.829627 -12.686921 -24.762029 -24.593020 -32.510276 -36.224453 -22.638062 25.404395 -53.724921 -38.731151 -22.266454 147.202577 -6.029481 3.545807 -48.864066 -113.986322 67.238792 -117.444023 -9.607912 6.210499 -24.705287 24.147739 30.901441 47.501808 5.942791 -8.402748 -39.915218 155.190223 -60.481195 -157.120868 3.295646 21.242476 -9.155109 24.312813 -32.217549 73.870142 -32.936835 -20.280249 -67.977050 -13.141725 2.174251 13.957177 27.084344 30.431178 60.299690 49.291209 -7.357619 -4.876812 -35.279877 -8.753310 13.046687 -24.269606 -19.894487 -38.837529 -88.437612 39.877460 95.492818 
-0.036915 0.624848 0.307528 84.230437 12.477269 -33.904200 -73.189865 41.914584 10.995610 46.400482 16.871926 6.541059 -52.021522 -29.086137 23.876235 10.152060 -12.949236 -26.363617 -23.027296 -33.704145 -37.342527 -22.925474 22.975087 -52.714421 -40.198326 -21.315670 147.053819 -6.006074 3.592729 -48.367273 -117.255806 67.100447 -120.569453 -10.492231 3.528422 -24.386824 24.534626 31.417422 48.742404 6.109757 -8.387706 -41.037033 154.652928 -60.639207 -157.132823 4.377935 22.229780 -5.261897 24.606327 -30.600426 69.950125 -32.934634 -20.258138 -67.917789 -13.776466 1.526903 11.141452 27.119234 31.847798 60.624737 50.193672 -7.557090 -4.617677 -35.627548 -8.751608 12.843262 -24.126769 -20.545550 -38.749329 -88.084401 39.350801 97.549875 
-0.034225 0.623271 0.305924 84.351829 11.783250 -36.630162 -72.372619 43.840595 11.286119 46.562221 17.029115 6.623003 -49.745042 -26.950005 23.355723 9.154112 -13.561848 -27.390152 -22.072852 -35.127035 -37.947629 -22.322794 20.769627 -52.132388 -42.777264 -19.974305 146.160339 -5.983781 3.636860 -47.908128 -121.913884 67.192012 -124.615239 -11.444790 0.729609 -24.400621 24.556956 31.947322 49.501007 6.309628 -8.364406 -42.389353 155.413526 -61.182414 -158.235644 4.626392 23.038979 -2.957648 24.712713 -29.690855 67.792712 -32.917356 -20.093815 -67.480505 -14.123427 1.045058 8.760212 26.767142 34.162980 60.592363 52.602574 -8.109280 -3.940225 -36.536465 -8.752601 12.311343 -23.897858 -21.238473 -38.627808 -87.762241 38.742051 99.264253 
